HIERARCHY
ROOT Hips
{
  OFFSET -32.5998 29.0326 120.673
  CHANNELS 6 Xposition Yposition Zposition Zrotation Xrotation Yrotation
  JOINT LeftUpLeg
  {
    OFFSET 8.64259 1.95398 -2.38835
    CHANNELS 3 Zrotation Xrotation Yrotation
    JOINT LeftLeg
    {
      OFFSET 43.7702 0 0
      CHANNELS 3 Zrotation Xrotation Yrotation
      JOINT LeftFoot
      {
        OFFSET 40.6238 0 0
        CHANNELS 3 Zrotation Xrotation Yrotation
        JOINT LeftToeBase
        {
          OFFSET 12.7242 0 0
          CHANNELS 3 Zrotation Xrotation Yrotation
          End Site
          {
            OFFSET 0 0 0
          }
        }
      }
    }
  }
  JOINT RightUpLeg
  {
    OFFSET -8.2249 1.95398 -2.59336
    CHANNELS 3 Zrotation Xrotation Yrotation
    JOINT RightLeg
    {
      OFFSET 43.5653 0 0
      CHANNELS 3 Zrotation Xrotation Yrotation
      JOINT RightFoot
      {
        OFFSET 40.6238 0 0
        CHANNELS 3 Zrotation Xrotation Yrotation
        JOINT RightToeBase
        {
          OFFSET 12.7242 0 0
          CHANNELS 3 Zrotation Xrotation Yrotation
          End Site
          {
            OFFSET 0 0 0
          }
        }
      }
    }
  }
  JOINT Spine
  {
    OFFSET 0.165834 0.87714 6.61349
    CHANNELS 3 Zrotation Xrotation Yrotation
    JOINT Spine1
    {
      OFFSET 7.38963 1.71661e-005 0
      CHANNELS 3 Zrotation Xrotation Yrotation
      JOINT Spine2
      {
        OFFSET 11.9445 1.14441e-005 0
        CHANNELS 3 Zrotation Xrotation Yrotation
        JOINT Spine3
        {
          OFFSET 14.7254 4.19617e-005 0
          CHANNELS 3 Zrotation Xrotation Yrotation
          JOINT Spine4
          {
            OFFSET 10.9679 0 0
            CHANNELS 3 Zrotation Xrotation Yrotation
            JOINT RightShoulder
            {
              OFFSET 2.46616 -1.6653 3.69651
              CHANNELS 3 Zrotation Xrotation Yrotation
              JOINT RightArm
              {
                OFFSET 13.0012 0 0
                CHANNELS 3 Zrotation Xrotation Yrotation
                JOINT RightForeArm
                {
                  OFFSET 28.7848 1.62311e-005 0
                  CHANNELS 3 Zrotation Xrotation Yrotation
                  JOINT RightHand
                  {
                    OFFSET 26.5688 1.62095e-005 0
                    CHANNELS 3 Zrotation Xrotation Yrotation
                    End Site
                    {
                      OFFSET 0 0 0
                    }
                  }
                }
              }
            }
            JOINT LeftShoulder
            {
              OFFSET 2.38034 -1.29275 -3.7523
              CHANNELS 3 Zrotation Xrotation Yrotation
              JOINT LeftArm
              {
                OFFSET 16.3182 6.07031e-005 0
                CHANNELS 3 Zrotation Xrotation Yrotation
                JOINT LeftForeArm
                {
                  OFFSET 27.0901 0 0
                  CHANNELS 3 Zrotation Xrotation Yrotation
                  JOINT LeftHand
                  {
                    OFFSET 24.5451 1.51738e-005 0
                    CHANNELS 3 Zrotation Xrotation Yrotation
                    End Site
                    {
                      OFFSET 0 0 0
                    }
                  }
                }
              }
            }
            JOINT Neck
            {
              OFFSET 5.0226 -0.0266342 0
              CHANNELS 3 Zrotation Xrotation Yrotation
              JOINT Head
              {
                OFFSET 6.69364 2.86102e-005 0
                CHANNELS 3 Zrotation Xrotation Yrotation
                End Site
                {
                  OFFSET 0 0 0
                }
              }
            }
          }
        }
      }
    }
  }
}
MOTION
Frames:	17
Frame Time:	0.0416667
-300.087 90.1831 -251.349 -110.525 53.5115 -77.0896 -170.152 18.0775 86.1198 -53.6282 12.097 -2.72679 79.2915 12.7661 4.31886 19.9462 -4.27513 1.09252 173.892 18.0573 80.6195 -88.8097 -7.13714 -5.21081 70.2454 -5.46569 -5.05314 17.5023 2.16144 8.46576 -0.319031 7.94894 -89.8607 10.9768 -0.570552 0.331598 -0.69403 -0.555406 0.356384 -23.2301 -0.643829 0.144789 -3.21745 -0.64384 0.144784 94.889 -24.3784 -98.411 36.6024 4.18222 5.04069 -52.5704 20.9585 -105.403 9.82732 -0.0846816 -5.7148 -86.2932 -44.1382 83.3403 -20.8765 37.1108 3.74447 43.3145 -20.7537 -90.8308 -16.2101 -0.0029453 -5.09145 20.6435 3.71806 -1.98626 -14.9525 4.07391 1.57165 
-294.987 91.1202 -244.714 -113.29 52.9665 -72.9258 -171.272 21.6093 87.5135 -50.1612 9.77487 -2.29568 70.5555 5.83182 3.62319 16.4615 -3.75697 -2.73992 171.929 1.56576 78.7249 -81.5358 -14.8658 -6.92619 71.9647 -7.74434 -5.14379 18.917 1.62701 8.43042 1.04305 7.80529 -90.0429 11.2664 2.05603 -0.288834 -0.403086 2.04134 -0.379077 -22.9498 2.04773 0.342634 -2.93716 2.04772 0.342621 95.0223 -18.6614 -99.9716 30.5297 12.9979 4.27478 -40.8581 19.0292 -114.579 -2.62366 -0.13664 1.86594 -83.9299 -40.7751 86.7145 -35.5946 33.9593 29.1685 36.5521 -26.8269 -102.94 -18.016 0.590321 -9.35992 14.4062 -2.39998 -3.46941 -12.1797 -1.45378 0.616113 
-288.19 94.4595 -237.22 -117.281 53.4083 -69.0582 -173.28 15.583 89.5252 -27.2132 11.8102 -1.98462 52.6287 -4.82337 1.36451 15.3029 -3.13761 -4.63335 171.792 -12.7805 81.3574 -65.1691 -25.0255 -9.37328 74.531 -9.09319 -2.16969 22.9216 0.37421 7.60618 2.30064 7.6233 -90.288 11.6558 4.44108 -1.03782 -0.00804424 4.39108 -1.23264 -22.6055 4.54724 0.347733 -2.59282 4.54724 0.347739 95.9731 -9.68378 -100.92 30.7944 11.5658 8.10744 -38.8806 16.0743 -112.068 -8.79293 -0.866377 6.82817 -82.384 -39.4784 89.1899 -30.2104 32.4105 37.2666 31.1351 -29.228 -111.854 -14.6757 0.517683 -10.0726 5.15305 -6.11054 -2.53201 -11.6216 -5.49015 -1.14372 
-278.928 96.1178 -227.623 -109.491 53.4659 -73.6674 -175.634 20.9086 92.0742 -19.3648 22.2448 -0.681272 53.0755 -4.60775 0.0186302 9.037 -11.7712 4.49475 172.255 -7.97169 85.2512 -51.05 -19.1935 -4.94128 73.2603 -8.4655 -3.44514 21.4243 0.229021 9.88875 2.10183 7.0518 -90.3556 12.799 4.00413 -1.18769 1.13356 3.94797 -1.36302 -21.4515 4.17568 0.0727116 -1.4389 4.17567 0.0727018 95.6615 -9.65914 -101.792 30.5378 4.32163 9.77697 -38.8374 14.7781 -106.924 -12.6687 -1.41795 8.05494 -83.183 -39.9626 87.8687 -25.1996 27.8557 34.2202 30.2903 -27.4991 -112.926 -12.7621 0.29042 -8.53679 5.15172 -5.90005 -3.91593 -14.2647 -5.11944 0.313039 
-268.619 93.9092 -217.619 -107.773 49.8149 -76.5287 -174.657 29.5623 92.3661 -43.8196 23.1409 -0.835386 63.508 1.94029 4.36571 16.2498 -5.91716 1.01289 173.486 0.470183 89.0858 -53.2188 -13.9666 -3.40486 75.7835 -10.5273 -7.31661 32.6182 -3.76822 10.3926 1.06389 7.61231 -90.1271 11.6551 2.05667 -0.467692 -0.0143508 2.03409 -0.55781 -22.5626 2.1021 0.172319 -2.54993 2.10212 0.172317 95.1483 -14.2602 -101.226 34.2278 -0.849662 14.856 -36.9108 12.5193 -100.342 -12.0052 -1.06485 5.28787 -87.3155 -45.2227 81.8997 -11.7311 24.768 16.7968 31.386 -25.834 -111.87 -10.6616 0.161472 -7.84614 18.1077 -2.60687 -1.58088 -18.2034 -1.654 -3.13388 
-258.703 91.2448 -207.186 -108.995 47.8345 -78.2256 -167.997 31.7758 91.0535 -71.9077 11.3479 -0.598571 73.1263 7.41919 4.42128 18.56 -4.36106 0.0796036 173.335 9.851 87.7457 -59.0243 -14.5831 -3.77054 83.0848 -15.8597 -5.64396 26.3879 -0.0315727 4.10556 -0.152427 8.05832 -89.6823 10.76 -0.156827 0.644934 -0.911064 -0.128283 0.651202 -23.4462 -0.343418 0.567989 -3.43352 -0.343397 0.56799 95.1446 -17.286 -100.074 44.2318 -11.8221 23.8056 -43.2333 9.73296 -87.942 -7.38555 -0.542131 2.95435 -87.4974 -44.9159 81.5653 4.58589 18.9904 -7.43147 23.5412 -21.4793 -113.986 -11.6223 0.127922 -7.0332 22.0696 1.7031 -4.7384 -17.5181 3.10709 0.858145 
-250.773 91.1746 -199.148 -110.342 47.7872 -74.6344 -164.33 22.2638 98.4028 -84.785 7.50935 1.34084 69.01 4.2785 4.4531 15.3992 -4.10277 -2.94804 174.683 16.8144 91.6973 -58.926 -17.6025 -2.5626 76.7262 -12.0425 -7.94762 21.4621 1.55194 5.58782 -1.15235 8.14156 -89.7711 10.5962 -2.18993 0.653884 -1.07314 -2.159 0.749652 -23.622 -2.28511 -0.0348139 -3.60938 -2.28509 -0.0348143 96.6124 -16.4379 -96.6165 58.7442 -14.7382 39.2978 -51.6014 12.7363 -85.5508 0.848445 -0.0162852 -4.14009 -85.1558 -39.3738 84.3655 8.18913 6.14501 -22.1119 19.3463 -16.4673 -115.317 -10.6887 0.201899 -8.52632 20.1719 6.33647 -4.31526 -14.8624 7.43782 0.464313 
-244.607 94.471 -191.392 -117.466 45.365 -69.25 -166.5 -3.31905 101.936 -72.966 18.5568 2.64035 62.308 0.779902 5.49407 19.4664 -1.90446 -4.05634 176.215 12.5198 91.4161 -46.0765 -17.003 -2.92402 65.7811 -2.86988 -5.04616 16.7922 2.71357 7.69365 -2.62005 8.35516 -89.5767 10.1942 -5.02754 1.25998 -1.46801 -4.96722 1.48051 -24.08 -5.17322 -0.313213 -4.06739 -5.17321 -0.313214 98.9074 -12.1458 -91.4307 70.1146 -20.1431 52.0257 -51.4613 21.7083 -87.0997 3.46182 -0.159733 -8.87851 -85.0685 -29.1078 82.5852 6.00074 2.80729 -21.7436 17.0626 -14.3768 -115.555 -7.83847 0.0137295 -6.43608 9.64183 11.9508 -3.84753 -12.9506 12.1542 5.30249 
-237.565 97.7078 -181.444 -115.405 48.9903 -69.0079 -170.933 -14.7535 93.7431 -52.7264 19.579 2.82153 66.0458 3.75042 5.45545 21.2346 -2.54796 -1.23582 178.184 11.4042 91.6141 -24.8239 -23.9357 -3.55171 56.0551 3.45456 1.80896 17.1489 3.38265 5.4495 -2.7167 7.70441 -90.1973 11.4808 -5.49733 0.166936 -0.178522 -5.48463 0.409458 -22.8025 -5.29259 -1.49771 -2.78987 -5.2926 -1.49772 97.3177 -10.5672 -96.5517 65.774 -6.30945 58.468 -40.6575 22.515 -95.2555 2.97253 -0.227922 -11.474 -83.601 -24.1413 84.5547 6.69845 13.7914 -30.1322 25.1 -20.4801 -111.214 -10.1979 -0.0775469 -4.55964 2.69222 14.4025 0.976493 -16.1732 13.3058 7.4575 
-228.544 97.196 -169.518 -107.333 53.5228 -73.7829 -173.613 -7.47752 89.1556 -44.0608 15.0245 1.60253 67.6601 4.50822 2.52694 32.8343 1.96986 -0.921477 -179.971 22.5895 91.5834 -38.7032 -22.2595 -4.24103 66.0213 -2.86491 -0.289904 18.5428 2.84327 5.33878 -1.93203 7.18636 -90.9065 12.4795 -4.27003 -1.32249 0.81504 -4.32408 -1.13297 -21.759 -3.6751 -2.54598 -1.74632 -3.67511 -2.54597 96.1607 -14.7135 -98.4328 55.0056 1.71801 50.6463 -37.8831 19.8216 -101.991 -0.597723 -0.0148399 -8.79779 -84.9929 -32.2856 83.4217 4.69504 17.676 -25.1009 24.5327 -22.6749 -115.638 -7.43304 0.0170403 -6.69765 6.99361 14.1114 3.2236 -15.7694 12.7378 5.72784 
-219.086 94.6639 -157.18 -113.048 54.0911 -67.6278 -171.822 -3.18449 91.3035 -45.3518 11.8628 0.587052 80.1018 13.5186 2.8015 35.0729 2.44972 0.157553 176.782 25.0964 90.8002 -69.6406 -10.1292 -3.37818 72.239 -5.64047 -1.08474 20.7837 1.79782 5.69907 -1.27212 7.86791 -90.7791 11.1217 -2.89306 -1.2633 -0.546615 -2.94584 -1.13468 -23.0952 -2.37966 -2.0746 -3.08257 -2.37967 -2.07461 93.779 -25.0836 -100.64 41.4801 7.33839 29.5976 -36.4276 19.5639 -112.459 -2.18677 -0.0923848 -2.74393 -86.2202 -41.7925 83.0439 -3.10366 22.2916 -5.10294 19.4132 -21.2098 -119.239 -8.90901 0.0438154 -6.95708 18.2811 11.7241 -4.10768 -19.2292 11.9035 5.07484 
-210.84 92.8633 -145.979 -110.849 52.428 -69.8734 -171.893 8.29737 87.3127 -50.4077 12.3754 0.0382882 85.0782 16.552 1.9284 19.6337 -4.1242 0.45336 170.167 21.1447 86.0644 -89.6854 -6.98692 -3.37102 69.8196 -4.60397 -3.59804 16.3854 3.32181 6.4814 -0.49806 7.75415 -90.6728 11.3588 -1.305 -1.21366 -0.311879 -1.35713 -1.15506 -22.8462 -0.879943 -1.54971 -2.83352 -0.87997 -1.54971 97.1823 -24.5541 -93.1667 37.1894 9.21257 3.20121 -40.7364 25.0658 -119.009 2.73504 0.061499 -2.32457 -84.4338 -43.7947 86.2855 -25.399 19.8891 23.6158 22.3333 -22.7555 -118.797 -13.8738 0.405389 -9.07945 21.2382 6.26802 -5.61339 -19.5721 7.3929 3.59348 
-204.17 94.6224 -136.857 -115.652 48.3107 -65.3538 -172.069 11.7519 91.6235 -46.256 22.2434 -0.522845 72.1851 8.88438 7.01239 17.1973 -2.76238 -4.02383 165.48 -1.02362 79.0279 -84.0345 -16.1193 -3.85532 62.9927 -0.875335 -4.5092 15.4055 3.38677 7.35645 0.796293 7.76982 -90.8 11.3411 1.21168 -1.71431 -0.330493 1.13505 -1.76595 -22.8646 1.67083 -1.27095 -2.85196 1.67081 -1.27096 96.9849 -18.1843 -95.1797 24.6997 25.7165 -1.22002 -31.5861 19.4053 -129.091 -6.04019 -0.401089 2.78862 -81.8169 -37.9347 90.0198 -36.8963 18.2785 47.2326 19.5527 -25.1774 -125.848 -14.3198 0.918934 -13.9942 15.9866 -0.833301 -8.03412 -15.5985 1.0247 3.83625 
-196.252 98.6783 -127.13 -115.185 45.8156 -66.2499 -174.847 9.84931 90.8109 -24.8344 23.5284 -0.114231 53.7106 -4.77863 2.34792 15.7485 -3.05167 -4.37661 167.387 -21.1296 84.2587 -58.1341 -22.6422 -3.72962 61.291 0.182184 -0.892698 17.1281 2.19714 8.76515 2.35304 7.32263 -90.5649 12.2783 4.40776 -1.642 0.61382 4.33121 -1.83472 -21.9835 4.6971 -0.238533 -1.97086 4.69709 -0.238536 98.3476 -6.63232 -94.7637 17.6134 26.5143 9.14063 -26.4717 15.3422 -130.571 -9.0397 -0.754887 4.65631 -81.5728 -28.6325 89.4542 -30.5152 23.571 52.1941 15.9067 -25.2146 -132.25 -10.6425 0.640888 -14.5289 10.5988 -9.46207 -10.928 -14.8503 -6.79452 0.530521 
-185.932 99.4525 -116.072 -102.696 41.4349 -76.2812 -176.615 18.832 89.9032 -17.1278 25.4085 -0.5892 55.1918 -3.42285 -2.18888 22.7913 -4.87685 4.81086 173.872 -22.5402 95.4723 -34.5099 -12.1844 0.320824 64.3057 -1.57983 -1.54807 18.2342 2.00828 8.01177 2.19102 6.51155 -89.6826 13.8601 4.49886 0.0392641 2.19697 4.49622 -0.159189 -20.3963 4.27861 1.39204 -0.383655 4.27861 1.39203 98.0398 -3.28186 -96.8439 14.5676 20.1158 13.9606 -26.7686 18.7626 -131.954 -7.93845 -0.682455 4.60052 -81.852 -23.8648 88.2772 -18.2926 20.7695 49.2219 14.0132 -22.2877 -136.362 -7.50137 0.425741 -15.5383 12.3585 -14.7666 -16.3121 -16.561 -10.3913 -0.640936 
-174.45 97.246 -103.496 -101.227 37.4656 -79.6027 -177.731 28.3733 89.5115 -43.5843 21.0732 0.920161 69.2771 5.27443 0.867823 20.636 -5.13621 3.39091 174.773 -14.5855 97.7111 -33.2996 -4.98145 1.93848 67.9869 -4.19037 -4.04087 30.0909 -2.91687 10.776 1.62597 7.10873 -89.2506 12.6428 3.58707 1.08004 0.976528 3.63112 0.920941 -21.5865 3.09656 2.10895 -1.57388 3.09654 2.10895 97.3039 -8.65315 -97.4665 18.487 16.3795 16.0553 -25.4425 23.4287 -138.192 -9.30926 -0.896745 6.34973 -83.5191 -33.8525 86.4282 -7.74063 18.8239 32.7799 15.7676 -21.0809 -131.563 -5.16926 0.10303 -12.1914 23.5971 -16.0808 -12.2965 -17.8211 -10.9471 -3.31681 
-163.32 94.3459 -90.2403 -107.179 39.1695 -79.2218 -174.546 27.5448 90.5519 -70.577 13.4065 2.00004 76.4806 9.0359 2.85502 16.8881 -7.01198 3.50241 170.791 -4.37715 91.0729 -46.8 -10.5862 0.107194 79.8743 -13.2534 -3.36685 34.7857 -4.21641 8.7555 0.949307 7.8932 -89.0958 11.0701 2.3091 1.57664 -0.599658 2.37622 1.47346 -23.1374 1.72861 2.19767 -3.12477 1.7286 2.19767 95.8868 -15.308 -98.8704 36.0067 -2.46785 17.478 -34.6929 31.8771 -127.456 -5.83302 -0.511966 5.52 -86.9049 -45.8562 82.6652 -4.80911 16.56 11.4588 18.8164 -19.9658 -121.823 -7.17526 0.117006 -9.31559 25.1189 -10.2744 -7.52901 -15.9633 -6.69191 -4.54936 
